<?xml version="1.0" encoding="iso-8859-1"?>
<svg version="1.1" id="Layer_1" xmlns="http://www.w3.org/2000/svg" xmlns:xlink="http://www.w3.org/1999/xlink" x="0px" y="0px"
	 viewBox="0 0 512 512" style="enable-background:new 0 0 512 512;" xml:space="preserve">
<g>
	<g>
		<circle style="fill:#386895;" cx="256" cy="256" r="256"/>
	</g>
	<path style="fill:#273B7A;" d="M290.147,75.812c-3.644,7.771-6.565,15.541-6.565,23.312
		c-1.724,93.091-56.889,167.219-117.226,236.175c-17.239,18.963-29.306,44.822-39.65,70.68c-3.448,5.172-10.343,8.62-13.791,13.791
		c-0.507,1.521-0.714,3.337-0.888,5.146l78.664,78.664C211.542,509.066,233.427,512,256,512
		c128.212,0,234.408-94.253,253.083-217.25L290.147,75.812z"/>
	<g>
		<path style="fill:#2AB2BC;" d="M341.333,256c0-94.256-38.205-199.111-85.333-199.111S170.667,161.744,170.667,256
			c0,22.849,24.371,42.953,28.444,112.916h113.778C316.962,298.953,341.333,278.849,341.333,256z"/>
	</g>
	<g>
		<path style="fill:#88E8ED;" d="M341.333,256c0-94.256-38.205-199.111-85.333-199.111c-0.191,0-0.383,0.017-0.574,0.021v312.006
			h57.463C316.962,298.953,341.333,278.849,341.333,256z"/>
	</g>
	<g>
		<path style="fill:#98EFF4;" d="M170.667,256c0,0-77.29,60.337-56.889,170.667l85.333-57.751
			C199.111,368.916,220.946,303.695,170.667,256z"/>
	</g>
	<g>
		<path style="fill:#2AB2BC;" d="M341.333,256c0,0,77.29,60.337,56.889,170.667l-85.333-57.751
			C312.889,368.916,291.054,303.695,341.333,256z"/>
	</g>
	<g>
		<path style="fill:#98EFF4;" d="M256,284.444c0,0,61.485,81.311,0,170.667C256,455.111,199.687,363.456,256,284.444z"/>
	</g>
	<g>
		<path style="fill:#38C6D9;" d="M256,284.444c0,0,61.485,81.311,0,170.667V284.444z"/>
	</g>
	<g>
		<circle style="fill:#FFFFFF;" cx="256" cy="170.667" r="51.717"/>
		<path style="fill:#366695;" d="M256,228.417c-31.844,0-57.751-25.907-57.751-57.751s25.907-57.751,57.751-57.751
			s57.751,25.907,57.751,57.751S287.844,228.417,256,228.417z M256,124.983c-25.19,0-45.684,20.494-45.684,45.683
			S230.81,216.35,256,216.35s45.684-20.494,45.684-45.684S281.19,124.983,256,124.983z"/>
	</g>
	<g>
		<path style="fill:#DFEEEF;" d="M256,118.949c28.563,0,51.717,23.154,51.717,51.717S284.563,222.384,256,222.384V118.949z"/>
		<path style="fill:#273B7A;" d="M256,112.916c-0.193,0-0.383,0.012-0.574,0.016v12.067c0.191-0.002,0.381-0.014,0.574-0.014
			c25.19,0,45.684,20.494,45.684,45.683S281.19,216.352,256,216.352c-0.193,0-0.383-0.012-0.574-0.014v12.067
			c0.191,0.002,0.381,0.016,0.574,0.016c31.844,0,57.751-25.907,57.751-57.751S287.844,112.916,256,112.916z"/>
	</g>
</g>
<g>
</g>
<g>
</g>
<g>
</g>
<g>
</g>
<g>
</g>
<g>
</g>
<g>
</g>
<g>
</g>
<g>
</g>
<g>
</g>
<g>
</g>
<g>
</g>
<g>
</g>
<g>
</g>
<g>
</g>
</svg>
